HIERARCHY
ROOT Hips
{
	OFFSET 46.796299 -32.920715 99.172691
	CHANNELS 6 Xposition Yposition Zposition Xrotation Yrotation Zrotation
	JOINT spine
	{
		OFFSET 0.000000 -0.477356 8.301041
		CHANNELS 3 Xrotation Yrotation Zrotation
		JOINT spine1
		{
			OFFSET 0.000000 0.000000 10.456497
			CHANNELS 3 Xrotation Yrotation Zrotation
			JOINT spine2
			{
				OFFSET 0.000000 0.000000 10.019203
				CHANNELS 3 Xrotation Yrotation Zrotation
				JOINT Neck
				{
					OFFSET 0.000000 -1.226418 25.723511
					CHANNELS 3 Xrotation Yrotation Zrotation
					JOINT Head
					{
						OFFSET 0.000000 0.000000 7.771744
						CHANNELS 3 Xrotation Yrotation Zrotation
						End Site
						{
							OFFSET 0.000000 6.203938 18.811996
						}
					}
				}
				JOINT RightShoulder
				{
					OFFSET -4.218800 0.587437 10.820007
					CHANNELS 3 Xrotation Yrotation Zrotation
					JOINT RightArm
					{
						OFFSET 0.000000 -0.000004 14.191406
						CHANNELS 3 Xrotation Yrotation Zrotation
						JOINT RightArmRoll
						{
							OFFSET 0.000000 0.000000 7.164078
							CHANNELS 3 Xrotation Yrotation Zrotation
							JOINT RightForeArm
							{
								OFFSET 0.000000 -0.000004 20.866501
								CHANNELS 3 Xrotation Yrotation Zrotation
								JOINT RightForeArmRoll
								{
									OFFSET 0.000000 0.000000 8.039215
									CHANNELS 3 Xrotation Yrotation Zrotation
									JOINT RightHand
									{
										OFFSET 0.000000 -0.000004 16.132996
										CHANNELS 3 Xrotation Yrotation Zrotation
										End Site
										{
											OFFSET 0.000000 0.000000 0.100006
										}
									}
								}
							}
						}
					}
				}
				JOINT LeftShoulder
				{
					OFFSET 4.218800 0.587437 10.820007
					CHANNELS 3 Xrotation Yrotation Zrotation
					JOINT LeftArm
					{
						OFFSET 0.000000 -0.000004 14.191406
						CHANNELS 3 Xrotation Yrotation Zrotation
						JOINT LeftArmRoll
						{
							OFFSET 0.000000 0.000000 7.164078
							CHANNELS 3 Xrotation Yrotation Zrotation
							JOINT LeftForeArm
							{
								OFFSET 0.000000 -0.000004 20.866501
								CHANNELS 3 Xrotation Yrotation Zrotation
								JOINT LeftForeArmRoll
								{
									OFFSET 0.000000 0.000000 8.039215
									CHANNELS 3 Xrotation Yrotation Zrotation
									JOINT LeftHand
									{
										OFFSET 0.000000 -0.000004 16.132996
										CHANNELS 3 Xrotation Yrotation Zrotation
										End Site
										{
											OFFSET 0.000000 0.000000 0.100006
										}
									}
								}
							}
						}
					}
				}
			}
		}
	}
	JOINT RightUpLeg
	{
		OFFSET -7.357731 1.131809 -1.349213
		CHANNELS 3 Xrotation Yrotation Zrotation
		JOINT RightUpLegRoll
		{
			OFFSET 0.000000 -0.000004 18.916801
			CHANNELS 3 Xrotation Yrotation Zrotation
			JOINT RightLeg
			{
				OFFSET 0.000000 0.000004 -23.425598
				CHANNELS 3 Xrotation Yrotation Zrotation
				JOINT RightLegRoll
				{
					OFFSET 0.000000 -0.000004 23.502296
					CHANNELS 3 Xrotation Yrotation Zrotation
					JOINT RightFoot
					{
						OFFSET 0.000000 -0.000004 19.561714
						CHANNELS 3 Xrotation Yrotation Zrotation
						JOINT RightToeBase
						{
							OFFSET 0.000000 -0.000002 16.352600
							CHANNELS 3 Xrotation Yrotation Zrotation
							End Site
							{
								OFFSET 0.006931 0.912834 7.919434
							}
						}
					}
				}
			}
		}
	}
	JOINT LeftUpLeg
	{
		OFFSET 7.357731 1.131809 -1.349213
		CHANNELS 3 Xrotation Yrotation Zrotation
		JOINT LeftUpLegRoll
		{
			OFFSET 0.000000 -0.000004 18.916901
			CHANNELS 3 Xrotation Yrotation Zrotation
			JOINT LeftLeg
			{
				OFFSET 0.000000 -0.000004 23.425514
				CHANNELS 3 Xrotation Yrotation Zrotation
				JOINT LeftLegRoll
				{
					OFFSET 0.000000 -0.000004 23.719498
					CHANNELS 3 Xrotation Yrotation Zrotation
					JOINT LeftFoot
					{
						OFFSET 0.000000 -0.000004 19.344406
						CHANNELS 3 Xrotation Yrotation Zrotation
						JOINT LeftToeBase
						{
							OFFSET 0.000000 -0.000002 16.352600
							CHANNELS 3 Xrotation Yrotation Zrotation
							End Site
							{
								OFFSET -0.031063 0.912834 7.919434
							}
						}
					}
				}
			}
		}
	}
}
MOTION
Frames: 4
Frame Time: 0.041667
48.213207 -18.949806 88.557594 10.616767 0.727692 -0.318869 1.563352 -0.595513 0.163666 7.131634 -1.178414 0.346138 8.776844 -1.173984 0.360212 -2.914833 9.832859 0.247233 -15.201706 -7.199136 -1.747170 -8.212235 -54.892137 -9.398804 129.821911 -43.639301 143.630013 -0.000000 -0.000002 -0.000001 17.817054 -7.381815 1.041062 0.000009 0.000007 -3.004079 -4.999935 -7.999203 0.000051 -1.200700 60.980264 1.675130 -52.386523 117.653137 46.872286 -0.000000 -0.000004 0.000001 27.292900 10.872123 -1.743703 -0.000025 -0.000000 3.000001 -5.000006 7.999175 -0.000058 -45.497464 -169.898196 5.067045 179.999964 -0.000006 -0.893002 130.524492 -7.955561 -4.925027 -0.000004 -0.000008 0.875104 74.283218 7.452431 0.051621 29.206446 -7.338619 0.476896 -46.587443 167.255227 -4.125253 -0.000005 -0.000005 -0.807184 -53.031129 6.553322 4.315264 -0.000010 0.000004 -0.874281 73.329792 -6.686988 -2.402501 32.640501 7.297903 -0.915660 
48.230305 -19.039116 88.695694 10.541036 0.718140 -0.333584 1.547406 -0.595223 0.160786 7.099688 -1.177653 0.340631 8.744898 -1.173274 0.354696 -2.792884 9.911468 0.252755 -15.191920 -7.269351 -1.746745 -8.171556 -54.875123 -9.348446 129.780547 -43.608039 143.755633 -0.000000 -0.000002 -0.000001 17.442695 -7.290741 1.022570 0.000009 0.000007 -3.004080 -4.999935 -7.999204 0.000052 -1.222043 61.036073 1.706322 -52.441929 117.579166 46.840355 -0.000000 -0.000004 0.000001 27.018968 10.894405 -1.728629 -0.000026 -0.000001 3.000001 -5.000005 7.999173 -0.000058 -45.177672 -169.945393 5.037559 179.999964 -0.000005 -0.893002 130.870304 -7.957846 -4.895822 -0.000004 -0.000008 0.868281 74.179993 7.448793 0.076763 29.215325 -7.338441 0.478648 -46.256859 167.293135 -4.122397 -0.000005 -0.000004 -0.808095 -52.710028 6.583983 4.305914 -0.000008 0.000005 -0.866023 73.249168 -6.688778 -2.403578 32.655544 7.297553 -0.918095 
48.211605 -19.115814 88.818993 10.464713 0.709154 -0.348272 1.531584 -0.594897 0.158123 7.068019 -1.176861 0.335630 8.713227 -1.172534 0.349687 -2.670899 9.986809 0.257459 -15.181567 -7.337320 -1.746219 -8.132291 -54.861613 -9.300071 129.735700 -43.581101 143.875094 -0.000000 -0.000002 0.000001 17.070668 -7.202096 1.004969 0.000009 0.000007 -3.004079 -4.999933 -7.999204 0.000053 -1.243643 61.088987 1.737457 -52.495376 117.506820 46.806463 0.000000 -0.000006 0.000000 26.745320 10.915583 -1.713066 -0.000024 -0.000000 3.000000 -5.000004 7.999174 -0.000058 -44.858309 -169.993272 5.007586 179.999964 -0.000005 -0.893001 131.215393 -7.959679 -4.865787 -0.000003 -0.000008 0.861497 74.076407 7.445041 0.102110 29.224412 -7.338253 0.480361 -45.926650 167.331275 -4.119772 -0.000006 -0.000005 -0.809074 -52.389672 6.613632 4.295939 -0.000009 0.000005 -0.857876 73.169009 -6.690534 -2.404422 32.668966 7.297148 -0.921038 
48.208405 -19.189112 88.937790 10.387786 0.700872 -0.362934 1.515919 -0.594535 0.155734 7.036669 -1.176047 0.331257 8.681877 -1.171761 0.345304 -2.549169 10.057939 0.261294 -15.170728 -7.402253 -1.745536 -8.094852 -54.852583 -9.254222 129.685963 -43.559842 143.986371 -0.000000 -0.000002 -0.000000 16.699783 -7.116607 0.988279 0.000008 0.000007 -3.004080 -4.999936 -7.999204 0.000052 -1.265419 61.138184 1.768362 -52.545724 117.436920 46.769799 -0.000000 -0.000005 0.000001 26.471961 10.935656 -1.697007 -0.000025 -0.000000 3.000001 -5.000004 7.999173 -0.000057 -44.539240 -170.041808 4.977280 179.999964 -0.000005 -0.893002 131.559935 -7.959789 -4.835372 -0.000004 -0.000008 0.854749 73.972540 7.441080 0.127840 29.233893 -7.338062 0.482058 -45.597151 167.368895 -4.116481 -0.000006 -0.000005 -0.810120 -52.069985 6.642216 4.285274 -0.000010 0.000004 -0.849842 73.089335 -6.692294 -2.405145 32.680761 7.296679 -0.924623 
